<svg id="svg" version="1.1" viewBox="0 0 300 299.8011928429423" width="300" height="299.8011928429423" xmlns="http://www.w3.org/2000/svg"><svg xmlns="http://www.w3.org/2000/svg"><defs><clipPath id="clip-1"><rect x="0" y="0" transform="scale(0.14648,0.14646)" width="2048" height="2047" fill="none"/></clipPath></defs><g clip-path="url(#clip-1)" fill="none" fill-rule="nonzero" stroke="none" stroke-width="1" stroke-linecap="butt" stroke-linejoin="miter" stroke-miterlimit="10" stroke-dasharray="" stroke-dashoffset="0" font-family="none" font-weight="none" font-size="none" text-anchor="none" style="mix-blend-mode: normal"><path d="M51.17637,0h197.51455c3.60352,0.53082 5.58691,0.49158 9.44531,1.37545c12.44531,2.86861 23.47266,10.05373 31.12207,20.2798c5.32764,7.12288 8.81396,15.44994 10.15137,24.24289c0.18311,1.20623 0.32959,2.31273 0.42773,3.532c0.0835,1.0258 -0.03223,2.69953 0.1626,3.6272v193.65839c-0.19922,1.35914 -0.11865,2.74171 -0.23291,4.10817c-0.15527,1.84977 -0.42041,3.69076 -0.77197,5.51271c-2.55029,12.76974 -9.61963,24.19207 -19.91162,32.17261c-6.67822,5.16267 -14.47266,8.69233 -22.75928,10.30191c-2.28809,0.44231 -5.22949,0.6122 -7.08398,0.99006h-198.8061c-1.88657,-0.39983 -4.59653,-0.58437 -6.7667,-0.99885c-7.48184,-1.44262 -14.56978,-4.46406 -20.78994,-8.86369c-10.73949,-7.57339 -18.34682,-18.80385 -21.39523,-31.58384c-0.4886,-2.05775 -0.85922,-4.14186 -1.11005,-6.24207c-0.12775,-1.03107 -0.17486,-2.27597 -0.34916,-3.24113l-0.02305,-0.12156v-197.73258c0.31736,-1.48465 0.51824,-4.72959 0.86987,-6.68775c1.36081,-7.57661 4.33827,-14.7711 8.72971,-21.09388c7.52181,-10.85418 18.76156,-18.57566 31.593,-21.70373c2.15083,-0.51869 4.33154,-0.90491 6.52969,-1.15648c1.11431,-0.13442 2.3833,-0.1585 3.4541,-0.37562z" fill="#1f55d3"/><path d="M74.14219,237.29111c-10.81436,-0.41008 -17.23418,-7.66273 -17.28735,-18.3425l0.00688,-99.07499l0.01699,-28.87406c-0.00059,-3.75359 0.01831,-7.54219 -0.00146,-11.29212c-0.02798,-5.3166 1.31733,-9.66965 5.16021,-13.50716c2.35225,-2.3265 5.33555,-3.91177 8.58018,-4.55941c2.03452,-0.41506 4.60591,-0.29892 6.72261,-0.29116l7.98823,0.02446l30.17534,-0.01303l-0.00981,31.37089c-3.23423,0.1053 -6.52749,-0.03998 -9.78164,0.08846c2.46665,0.20475 7.18433,0.07557 9.81387,0.06664l0.06372,51.43341l-0.00513,15.93179c0.00161,1.84392 0.11982,6.18642 -0.04775,7.87509c-0.20186,16.16612 0.01465,32.54315 -0.01479,48.73271l0.00176,12.41824c0.00557,2.55864 0.08232,5.41019 -0.07764,7.93953l-14.32207,0.03515c0.09507,2.33748 0.25942,12.58374 -0.14956,14.42326c-0.24316,1.06915 -0.7481,2.05921 -1.46938,2.88524c-1.31733,1.49974 -3.2439,2.26279 -5.22334,2.26132c-3.52295,-0.00146 -7.04121,-0.00439 -10.56416,0.04101c-1.38311,0.01758 -3.13242,0.0498 -4.46338,-0.23433c-1.13979,-0.24898 -2.18716,-0.81138 -3.02358,-1.62423c-0.92227,-0.89926 -1.56768,-2.0431 -1.85977,-3.29825c-0.36636,-1.52171 -0.25137,-4.65446 -0.24463,-6.3402z" fill="#f6f6f7"/><path d="M115.53706,168.1274c-11.14277,-0.25191 -22.42104,0.15378 -33.57437,-0.00879c-3.50347,-0.05126 -5.65576,-0.83628 -8.12124,-3.31583c-3.69844,-3.72005 -3.04702,-9.02479 -3.04629,-13.86672l0.01187,-12.18171l0.00732,-20.1624c-0.01729,-4.9339 -0.01216,-9.76397 0.02563,-14.79498c0.03809,-5.08241 3.3271,-9.47281 8.33291,-10.7243c1.50381,-0.37596 4.15078,-0.31562 5.74775,-0.28999c6.89663,0.11028 13.90869,-0.18717 20.7917,0.03779c2.46665,0.20475 7.18433,0.07557 9.81387,0.06664l0.06372,51.43341l-0.00513,15.93179c0.00161,1.84392 0.11982,6.18642 -0.04775,7.87509z" fill="#1a48af"/><path d="M85.20615,193.24801c5.27944,-0.54336 9.99419,3.3085 10.51377,8.58981c0.51958,5.27984 -3.35405,9.97677 -8.63804,10.47327c-5.25088,0.4921 -9.91245,-3.35098 -10.42881,-8.5986c-0.51636,-5.24762 3.30688,-9.92551 8.55308,-10.46448z" fill="#1a48af"/><path d="M79.42749,197.5334c0.20537,0.08641 0.18838,0.11131 0.36284,0.27241c0.14033,0.848 0.03589,1.65938 -0.02197,2.52202c-0.13301,-0.06444 -0.18223,-0.14939 -0.29443,-0.26948c-0.17095,-0.85678 -0.08452,-1.64913 -0.04644,-2.52495z" fill="#1f55d3"/><path d="M194.46826,61.94563c3.03809,0.40511 6.55371,0.58994 9.6416,0.86748c6.2417,0.60048 12.48486,1.16362 18.73242,1.68911c0.79688,0.0681 1.6084,0.13767 2.40381,0.20548c7.81934,0.66712 13.99805,0.34784 19.26123,7.17604c2.18994,2.88612 3.44678,6.37272 3.60059,9.99274c0.06738,1.80994 -0.24463,4.41881 -0.41602,6.28909l-0.85107,9.55673l-3.21094,36.19861l-4.91455,55.10908l-2.01562,23.18882c-0.35889,4.12282 -0.74121,9.63553 -1.27002,13.70855c-0.59326,4.43184 -2.93555,8.44189 -6.50391,11.13673c-3.25781,2.49712 -6.2959,3.47107 -10.32861,3.65268c-0.62256,12.59985 -0.01465,18.10524 -14.61035,15.86588c-4.58936,-0.70447 -11.32324,0.48771 -12.94482,-5.63574c-0.55957,-2.66262 0.29883,-8.9047 0.6167,-11.78261c0.03369,-0.28852 0.07617,-0.57705 0.12598,-0.86411c-4.03564,-0.50235 -8.36572,-0.74987 -12.46729,-1.18046c1.17627,-14.7484 2.44922,-29.48948 3.81885,-44.22177l1.49707,-17.45057c0.14795,-1.67842 0.35449,-5.76023 0.59912,-7.17062c0.32959,-1.77508 0.48926,-5.32231 0.63281,-7.22481c0.28418,-3.55895 0.59619,-7.11497 0.9375,-10.66806l3.66797,-41.65025l0.91113,-10.17113c0.08057,-0.97776 0.26367,-4.69518 0.46436,-5.32436c0.85547,-10.33955 1.88525,-20.97378 2.62207,-31.29254z" fill="#f6f6f7"/><path d="M191.84619,93.23817l24.34277,2.24258c2.30713,0.23492 6.34717,0.35253 8.30713,0.95081c2.00098,0.62963 3.77783,1.82751 5.11084,3.44793c3.17432,3.80383 2.42578,7.51656 2.04199,12.10087l-0.86865,9.91687l-2.15332,23.94426c-0.40137,4.60393 -0.75439,9.18516 -1.14404,13.84109c-0.31348,3.74056 -0.95801,6.21864 -3.90967,8.84172c-1.23926,1.10283 -4.03271,2.41364 -5.69238,2.4649c-3.43945,0.10838 -7.99072,-0.41155 -11.47705,-0.73376c-6.76904,-0.62391 -13.75195,-1.07208 -20.47998,-1.89078c-0.22998,-0.02783 -0.46143,-0.05712 -0.69141,-0.08788c0.32959,-1.77508 0.48926,-5.32231 0.63281,-7.22481c0.28418,-3.55895 0.59619,-7.11497 0.9375,-10.66806l3.66797,-41.65025l0.91113,-10.17113c0.08057,-0.97776 0.26367,-4.69518 0.46436,-5.32436z" fill="#1a48af"/><path d="M208.51318,195.63675c5.23975,-0.63856 10.00635,3.08882 10.64648,8.32765c0.6416,5.23883 -3.08643,10.0046 -8.32471,10.64756c-5.24121,0.64149 -10.01074,-3.08735 -10.65234,-8.32765c-0.6416,-5.2403 3.08936,-10.00753 8.33057,-10.64756z" fill="#1a48af"/><path d="M150.80273,92.82062c0.43945,-0.01216 1.07227,-0.0498 1.48535,0.00059c1.52637,0.11849 3.25195,0.093 4.79297,0.07382c6.27832,-0.07821 12.61084,0.1053 18.8833,-0.02124l0.04248,57.65219l-0.00879,12.20295c-0.00146,1.35328 0.12451,4.19751 -0.08496,5.39701c-5.10059,-0.12595 -10.56152,-0.03515 -15.68994,-0.03076l-29.48057,-0.00732c-0.998,-0.20797 -5.99048,-0.09666 -7.31924,-0.08202c0.06167,-2.12951 -0.01377,-4.46114 -0.00747,-6.61115l0.01655,-15.77786l-0.03193,-52.77614c8.14526,0.17956 16.34224,-0.02797 24.49307,0.05331c0.97266,0.00981 1.93799,-0.00117 2.90918,-0.07338z" fill="#1a48af"/><path d="M130.74258,168.08785l29.48057,0.00732c5.12842,-0.00439 10.58936,-0.0952 15.68994,0.03076c0.11133,3.50769 0.02783,7.43132 0.02783,10.96244l0.00293,19.91108c0.00439,12.51491 0.2417,25.78993 -0.00439,38.23454c-6.22705,-0.1201 -12.82764,-0.01318 -19.08252,-0.01025l-33.42041,0.01758l-0.00103,-46.69693c-0.00513,-7.40496 -0.10576,-15.0589 0.03354,-22.43749z" fill="#f6f6f7"/><path d="M123.46011,61.34881l35.29526,0.0164c5.65283,-0.0022 11.55029,-0.10399 17.17383,-0.00205l0.02051,20.61774c0.00439,3.49231 0.08789,7.28984 0.01025,10.75476c-5.31885,0.05024 -10.64062,0.06181 -15.96094,0.03486c-2.15918,-0.00117 -5.60449,-0.10677 -7.71094,0.05067c-0.41309,-0.05038 -1.0459,-0.01274 -1.48535,-0.00059c-2.75098,-0.12068 -5.65576,-0.03544 -8.42681,-0.05829c-6.29663,-0.05199 -12.65142,0.08275 -18.9438,-0.02578z" fill="#f6f6f7"/><path d="M58.33857,229.3091c0.53364,0.64149 0.27744,2.12365 0.1771,2.93796l-0.3167,-0.28267c-0.18867,-0.99153 -0.04702,-1.67402 0.1396,-2.6553z" fill="#1a48af"/></g></svg></svg>