<?xml version="1.0" standalone="no"?>
<!DOCTYPE svg PUBLIC "-//W3C//DTD SVG 20010904//EN"
 "http://www.w3.org/TR/2001/REC-SVG-20010904/DTD/svg10.dtd">
<svg version="1.0" xmlns="http://www.w3.org/2000/svg"
 width="1509.000000pt" height="1508.000000pt" viewBox="0 0 1509.000000 1508.000000"
 preserveAspectRatio="xMidYMid meet">
<metadata>
Created by potrace 1.16, written by Peter Selinger 2001-2019
</metadata>
<g transform="translate(0.000000,1508.000000) scale(0.100000,-0.100000)"
fill="#000000" stroke="none">
<path d="M0 7540 l0 -7540 7545 0 7545 0 0 7540 0 7540 -7545 0 -7545 0 0
-7540z m5815 3664 l0 -789 -910 -5 c-989 -5 -919 -1 -1036 -60 -107 -54 -211
-162 -253 -263 -46 -113 -46 -99 -46 -1564 0 -865 4 -1404 10 -1448 28 -195
195 -382 390 -436 35 -9 250 -12 930 -10 487 1 893 -1 903 -4 16 -7 17 -99 17
-1741 l0 -1734 -282 -1 c-156 -1 -318 -3 -361 -5 l-77 -2 -3 -364 -2 -363 -29
-57 c-35 -69 -94 -128 -166 -165 l-55 -28 -435 0 -435 0 -53 30 c-74 40 -124
92 -158 161 l-29 59 -3 362 -3 362 -42 5 c-23 3 -67 7 -97 10 -116 11 -290 85
-394 167 -177 141 -290 347 -326 594 -13 95 -13 7114 0 7280 6 69 19 147 31
185 28 83 91 212 134 270 42 57 146 156 208 199 97 66 253 127 362 140 27 3
536 6 1130 5 l1080 0 0 -790z m3040 1 l0 -790 -1322 -3 -1323 -2 0 788 c0 434
2 791 4 793 2 2 598 4 1323 4 l1318 -1 0 -789z m1210 735 c127 -11 374 -33
550 -49 176 -17 401 -37 500 -45 701 -60 746 -66 871 -125 171 -80 321 -226
406 -396 37 -73 75 -201 89 -296 12 -87 9 -120 -56 -844 -8 -88 -19 -221 -25
-295 -6 -74 -17 -202 -25 -285 -21 -218 -71 -773 -95 -1045 -11 -129 -29 -341
-40 -470 -11 -129 -29 -327 -40 -440 -34 -351 -125 -1402 -135 -1555 -4 -49
-17 -193 -30 -320 -13 -126 -26 -264 -29 -305 -4 -41 -17 -199 -31 -350 -14
-151 -36 -408 -50 -570 -13 -162 -31 -362 -40 -445 -8 -82 -21 -219 -30 -302
-10 -114 -22 -175 -44 -242 -74 -221 -235 -400 -455 -506 -102 -49 -177 -71
-281 -80 l-70 -7 -23 -269 c-13 -147 -28 -285 -34 -306 -27 -104 -124 -202
-223 -228 -33 -8 -85 -15 -116 -15 -65 0 -535 35 -655 49 -117 14 -204 52
-258 112 -99 110 -108 173 -73 529 13 135 22 247 20 249 -1 2 -69 10 -150 18
-302 27 -458 44 -464 51 -4 4 -3 50 2 102 5 52 18 210 29 350 22 271 40 485
65 745 29 313 119 1344 170 1970 27 317 23 296 48 290 40 -8 414 -44 957 -91
690 -59 735 -57 887 38 119 75 211 204 238 335 8 38 23 183 35 323 27 327 84
983 110 1260 90 959 111 1271 90 1361 -30 129 -136 271 -252 337 -107 61 -89
58 -608 107 -146 13 -445 40 -665 60 -220 19 -419 38 -443 41 l-44 5 6 37 c3
20 26 285 51 587 25 303 52 620 60 705 8 85 15 171 15 191 0 58 -25 56 285 29z
m-1221 -5316 c15 -6 16 -168 16 -1740 l0 -1734 -1305 -1 c-718 -1 -1313 -2
-1322 -3 -17 -1 -18 88 -21 1729 -1 952 0 1736 3 1743 3 9 274 12 1309 12 717
0 1311 -3 1320 -6z"/>
<path d="M4226 5350 c-65 -17 -177 -82 -227 -132 -30 -30 -65 -81 -91 -135
l-43 -86 0 -116 c0 -114 1 -118 37 -191 116 -235 354 -342 585 -265 264 89
389 341 304 614 -39 126 -157 246 -289 293 -65 23 -215 33 -276 18z"/>
<path d="M10408 5221 c-184 -59 -316 -229 -334 -430 -12 -130 53 -291 153
-380 128 -113 280 -154 428 -116 185 48 314 174 360 350 29 113 11 252 -45
350 -35 61 -140 164 -195 193 -107 54 -258 68 -367 33z"/>
</g>
</svg>
